<svg width="16" height="16" viewBox="0 0 16 16" fill="none" xmlns="http://www.w3.org/2000/svg">
<g clip-path="url(#clip0_19_398)">
<path d="M1.22161 0.888672C0.551308 0.948582 0.0130522 1.45672 0 2.07369C0.146486 6.25516 1.53652 9.62216 4.06241 11.9276C6.58846 14.2328 10.2145 15.4415 14.7158 15.4341C15.4545 15.4372 15.9636 14.8428 15.9773 14.2436C15.9848 13.2556 15.9928 12.2652 16 11.2784C16 10.5889 15.3439 10.1415 14.7385 10.1366C13.8062 10.1401 12.5062 9.81733 11.4544 9.56839C11.2748 9.52708 11.0746 9.57998 10.943 9.70367L9.21004 11.3054C7.12231 10.1115 6.16616 9.23178 4.88042 7.30669L6.60198 5.72127C6.74136 5.59312 6.80008 5.39079 6.74973 5.21265C6.46627 4.20203 5.99891 2.88522 6.07361 1.96037C5.9998 1.23842 5.28042 0.885147 4.70995 0.889012H1.22126L1.22161 0.888672ZM1.22732 1.92768H4.73323C4.90939 1.93082 4.90939 1.93082 4.99462 2.08458C4.96228 3.1992 5.34632 4.32516 5.6082 5.19061L3.80142 6.86808C3.62538 7.0309 3.58809 7.3127 3.71619 7.51198C5.27034 9.91115 6.42296 10.9758 9.01174 12.4145C9.21542 12.5272 9.49584 12.4947 9.66516 12.3388L11.4891 10.6452C12.4784 10.8832 13.6652 11.1795 14.7447 11.1754C14.8229 11.1894 14.9 11.295 14.9094 11.3052L14.8867 14.2382C14.8488 14.3227 14.9094 14.3983 14.6821 14.3951C10.4025 14.3951 7.10018 13.2576 4.81833 11.1756C2.53033 9.08767 1.2306 6.01915 1.09099 2.0362C1.09099 1.93112 1.09099 1.93112 1.22733 1.92797L1.22732 1.92768Z" fill="white"/>
</g>
<defs>
<clipPath id="clip0_19_398">
<rect width="16" height="16" fill="white"/>
</clipPath>
</defs>
</svg>
