<svg width="16" height="16" viewBox="0 0 16 16" fill="none" xmlns="http://www.w3.org/2000/svg">
<path d="M7.31178 15.8239C7.42919 15.9413 7.58578 16 7.72286 16C7.85994 16 8.01639 15.9413 8.13394 15.8239L12.4789 11.4789C15.1015 8.85631 15.1015 4.58959 12.4789 1.96695C9.85631 -0.655651 5.58959 -0.655651 2.96695 1.96695C0.344349 4.58956 0.344349 8.85627 2.96695 11.4789L7.31178 15.8239ZM3.78884 2.78897C5.96132 0.61649 9.48427 0.61649 11.6568 2.78897C13.8097 4.96146 13.8097 8.48441 11.6568 10.6373L7.72279 14.5909L3.78884 10.6569C1.63585 8.48441 1.61635 4.96146 3.78884 2.78897Z" fill="white"/>
<path d="M7.72279 8.68013C9.17114 8.68013 10.3651 7.48624 10.3651 6.03785C10.3651 4.58945 9.17118 3.39556 7.72279 3.39556C6.27439 3.39556 5.08051 4.56995 5.08051 6.03785C5.08051 7.50574 6.27439 8.68013 7.72279 8.68013ZM7.72279 4.57002C8.52527 4.57002 9.19068 5.23543 9.19068 6.03791C9.19068 6.8404 8.52527 7.50581 7.72279 7.50581C6.9203 7.50581 6.25489 6.8404 6.25489 6.03791C6.25489 5.23543 6.9203 4.57002 7.72279 4.57002Z" fill="white"/>
</svg>
