<svg width="16" height="16" viewBox="0 0 16 16" fill="none" xmlns="http://www.w3.org/2000/svg">
<path d="M1.71423 2C0.762625 2 0 2.80317 0 3.75597V11.6666C0 12.6194 0.762659 13.4286 1.71423 13.4286H14.2858C15.2374 13.4286 16 12.6194 16 11.6666V3.75597C16 2.80317 15.2373 2 14.2858 2H1.71423ZM1.79754 3.14294H14.2085L8.33943 8.71443C8.12592 8.91719 7.88688 8.91746 7.67269 8.71443L1.79754 3.14294ZM1.14277 4.09533L5.03566 7.78585L1.14277 11.6669V4.09533ZM14.8572 4.09533V11.6669L10.9762 7.77973L14.8572 4.09533ZM10.1548 8.56579L13.8629 12.2862H2.14278L5.86322 8.57192L6.88711 9.5421C7.50772 10.1303 8.50477 10.1312 9.12525 9.5421L10.1548 8.56579Z" fill="white"/>
</svg>
