<svg width="20" height="20" viewBox="0 0 20 20" fill="none" xmlns="http://www.w3.org/2000/svg">
<path d="M14.403 7.00002H12V5.00003C12 3.96803 12.084 3.31803 13.563 3.31803H14.431C14.983 3.31803 15.431 2.87003 15.431 2.31803V1.06404C15.431 0.541036 15.03 0.0940373 14.508 0.0590374C13.904 0.0180374 13.299 -0.000962529 12.693 3.74687e-05C9.97999 3.74687e-05 7.99999 1.65703 7.99999 4.69903V7.00002H6C5.448 7.00002 5 7.44802 5 8.00002V10C5 10.552 5.448 11 6 11L7.99999 10.999V19C7.99999 19.552 8.44799 20 8.99999 20H11C11.552 20 12 19.552 12 19V10.997L14.174 10.996C14.682 10.996 15.109 10.615 15.167 10.11L15.396 8.11402C15.465 7.52102 15.001 7.00002 14.403 7.00002Z" fill="white"/>
</svg>
