<svg width="20" height="20" viewBox="0 0 20 20" fill="none" xmlns="http://www.w3.org/2000/svg">
<g clip-path="url(#clip0_20_425)">
<path d="M0.434783 6.46315C0.195652 6.46315 0 6.6588 0 6.89793V19.5066C0 19.7458 0.195652 19.9414 0.434783 19.9414H4.78261C5.02174 19.9414 5.21739 19.7458 5.21739 19.5066V6.89793C5.21739 6.6588 5.02174 6.46315 4.78261 6.46315H0.434783ZM6.95652 6.46315C6.71739 6.46315 6.52174 6.6588 6.52174 6.89793V19.5066C6.52174 19.7458 6.71739 19.9414 6.95652 19.9414H10.8696C11.1096 19.9414 11.3043 19.7466 11.3043 19.5066V12.7675C11.3043 11.7371 12.0959 10.8977 13.1046 10.8195C13.1568 10.8108 13.2087 10.811 13.2609 10.811C13.313 10.811 13.3649 10.8108 13.4171 10.8195C14.4258 10.8977 15.2174 11.7371 15.2174 12.7675V19.5066C15.2174 19.7466 15.4122 19.9414 15.6522 19.9414H19.5652C19.8043 19.9414 20 19.7458 20 19.5066V12.1153C20 9.30228 18.4909 6.46315 15.1257 6.46315C13.5952 6.46315 12.4391 7.05455 11.7391 7.54586V6.89793C11.7391 6.6588 11.5435 6.46315 11.3043 6.46315H6.95652Z" fill="white"/>
<path d="M0 2.5C0 1.11929 1.11929 0 2.5 0C3.88071 0 5 1.11929 5 2.5C5 3.88071 3.88071 5 2.5 5C1.11929 5 0 3.88071 0 2.5Z" fill="white"/>
</g>
<defs>
<clipPath id="clip0_20_425">
<rect width="20" height="20" fill="white"/>
</clipPath>
</defs>
</svg>
